<svg width="24" height="25" viewBox="0 0 24 25" fill="none" xmlns="http://www.w3.org/2000/svg">
<path d="M12 7C13.8387 6.99389 15.6419 7.50678 17.2021 8.47973C18.7624 9.45267 20.0164 10.8462 20.82 12.5C19.17 15.87 15.8 18 12 18C8.2 18 4.83 15.87 3.18 12.5C3.98362 10.8462 5.23763 9.45267 6.79788 8.47973C8.35813 7.50678 10.1613 6.99389 12 7ZM12 5C7 5 2.73 8.11 1 12.5C2.73 16.89 7 20 12 20C17 20 21.27 16.89 23 12.5C21.27 8.11 17 5 12 5ZM12 10C12.663 10 13.2989 10.2634 13.7678 10.7322C14.2366 11.2011 14.5 11.837 14.5 12.5C14.5 13.163 14.2366 13.7989 13.7678 14.2678C13.2989 14.7366 12.663 15 12 15C11.337 15 10.7011 14.7366 10.2322 14.2678C9.76339 13.7989 9.5 13.163 9.5 12.5C9.5 11.837 9.76339 11.2011 10.2322 10.7322C10.7011 10.2634 11.337 10 12 10ZM12 8C9.52 8 7.5 10.02 7.5 12.5C7.5 14.98 9.52 17 12 17C14.48 17 16.5 14.98 16.5 12.5C16.5 10.02 14.48 8 12 8Z" fill="black"/>
</svg>
