<svg width="20" height="20" viewBox="0 0 20 20" fill="none" xmlns="http://www.w3.org/2000/svg">
<g clip-path="url(#clip0_273_169)">
<path d="M17.7778 3.33301H2.2222C1.92751 3.33301 1.64489 3.45007 1.43652 3.65844C1.22815 3.86682 1.11108 4.14943 1.11108 4.44412V15.5552C1.11108 15.8499 1.22815 16.1325 1.43652 16.3409C1.64489 16.5493 1.92751 16.6663 2.2222 16.6663H17.7778C18.0724 16.6663 18.3551 16.5493 18.5634 16.3409C18.7718 16.1325 18.8889 15.8499 18.8889 15.5552V4.44412C18.8889 4.14943 18.7718 3.86682 18.5634 3.65844C18.3551 3.45007 18.0724 3.33301 17.7778 3.33301ZM16.9222 15.5552H3.14442L7.03331 11.533L6.23331 10.7608L2.2222 14.9108V5.28856L9.12775 12.1608C9.33593 12.3677 9.61755 12.4839 9.91108 12.4839C10.2046 12.4839 10.4862 12.3677 10.6944 12.1608L17.7778 5.11634V14.8386L13.6889 10.7497L12.9055 11.533L16.9222 15.5552ZM2.94997 4.44412H16.8778L9.91108 11.3719L2.94997 4.44412Z" fill="#FFFEF9"/>
</g>
<defs>
<clipPath id="clip0_273_169">
<rect width="20" height="20" fill="white"/>
</clipPath>
</defs>
</svg>
