<svg width="20" height="20" viewBox="0 0 20 20" fill="none" xmlns="http://www.w3.org/2000/svg">
<g clip-path="url(#clip0_273_159)">
<path fill-rule="evenodd" clip-rule="evenodd" d="M6.22087 0.888008C7.19837 0.843008 7.51004 0.833008 10 0.833008C12.49 0.833008 12.8017 0.843841 13.7784 0.888008C14.755 0.932174 15.4217 1.08801 16.005 1.31384C16.6159 1.54467 17.17 1.90551 17.6284 2.37217C18.095 2.82967 18.455 3.38301 18.685 3.99467C18.9117 4.57801 19.0667 5.24467 19.1117 6.21968C19.1567 7.19884 19.1667 7.51051 19.1667 9.99967C19.1667 12.4897 19.1559 12.8013 19.1117 13.7788C19.0675 14.7538 18.9117 15.4205 18.685 16.0038C18.455 16.6156 18.0944 17.1698 17.6284 17.628C17.17 18.0947 16.6159 18.4547 16.005 18.6847C15.4217 18.9113 14.755 19.0663 13.78 19.1113C12.8017 19.1563 12.49 19.1663 10 19.1663C7.51004 19.1663 7.19837 19.1555 6.22087 19.1113C5.24587 19.0672 4.57921 18.9113 3.99587 18.6847C3.38414 18.4546 2.82989 18.0941 2.37171 17.628C1.90536 17.1702 1.54447 16.6162 1.31421 16.0047C1.08837 15.4213 0.933374 14.7547 0.888374 13.7797C0.843374 12.8005 0.833374 12.4888 0.833374 9.99967C0.833374 7.50968 0.844207 7.19801 0.888374 6.22134C0.932541 5.24467 1.08837 4.57801 1.31421 3.99467C1.54481 3.38308 1.90597 2.8291 2.37254 2.37134C2.83007 1.90509 3.38377 1.54421 3.99504 1.31384C4.57837 1.08801 5.24504 0.933008 6.22004 0.888008H6.22087ZM13.7042 2.53801C12.7375 2.49384 12.4475 2.48467 10 2.48467C7.55254 2.48467 7.26254 2.49384 6.29587 2.53801C5.40171 2.57884 4.91671 2.72801 4.59337 2.85384C4.16587 3.02051 3.86004 3.21801 3.53921 3.53884C3.23508 3.83472 3.00102 4.19491 2.85421 4.59301C2.72837 4.91634 2.57921 5.40134 2.53837 6.29551C2.49421 7.26217 2.48504 7.55217 2.48504 9.99967C2.48504 12.4472 2.49421 12.7372 2.53837 13.7038C2.57921 14.598 2.72837 15.083 2.85421 15.4063C3.00087 15.8038 3.23504 16.1647 3.53921 16.4605C3.83504 16.7647 4.19587 16.9988 4.59337 17.1455C4.91671 17.2713 5.40171 17.4205 6.29587 17.4613C7.26254 17.5055 7.55171 17.5147 10 17.5147C12.4484 17.5147 12.7375 17.5055 13.7042 17.4613C14.5984 17.4205 15.0834 17.2713 15.4067 17.1455C15.8342 16.9788 16.14 16.7813 16.4609 16.4605C16.765 16.1647 16.9992 15.8038 17.1459 15.4063C17.2717 15.083 17.4209 14.598 17.4617 13.7038C17.5059 12.7372 17.515 12.4472 17.515 9.99967C17.515 7.55217 17.5059 7.26217 17.4617 6.29551C17.4209 5.40134 17.2717 4.91634 17.1459 4.59301C16.9792 4.16551 16.7817 3.85967 16.4609 3.53884C16.165 3.23473 15.8048 3.00068 15.4067 2.85384C15.0834 2.72801 14.5984 2.57884 13.7042 2.53801ZM8.82921 12.8255C9.48309 13.0977 10.2112 13.1344 10.8891 12.9294C11.5671 12.7244 12.1529 12.2904 12.5464 11.7015C12.9399 11.1126 13.1168 10.4054 13.0467 9.7006C12.9767 8.99579 12.6642 8.33715 12.1625 7.83717C11.8427 7.51757 11.4561 7.27285 11.0303 7.12063C10.6046 6.96841 10.1504 6.91248 9.70045 6.95685C9.25051 7.00123 8.816 7.14482 8.42821 7.37728C8.04042 7.60974 7.70899 7.92529 7.45779 8.30122C7.20659 8.67714 7.04186 9.10408 6.97547 9.55131C6.90908 9.99854 6.94267 10.4549 7.07382 10.8876C7.20498 11.3203 7.43044 11.7185 7.73397 12.0536C8.03751 12.3887 8.41156 12.6523 8.82921 12.8255ZM6.66837 6.66801C7.1059 6.23049 7.62531 5.88343 8.19696 5.64664C8.7686 5.40986 9.38129 5.28799 10 5.28799C10.6188 5.28799 11.2315 5.40986 11.8031 5.64664C12.3748 5.88343 12.8942 6.23049 13.3317 6.66801C13.7692 7.10553 14.1163 7.62494 14.3531 8.19659C14.5899 8.76824 14.7117 9.38093 14.7117 9.99967C14.7117 10.6184 14.5899 11.2311 14.3531 11.8028C14.1163 12.3744 13.7692 12.8938 13.3317 13.3313C12.4481 14.215 11.2497 14.7114 10 14.7114C8.75042 14.7114 7.55199 14.215 6.66837 13.3313C5.78476 12.4477 5.28835 11.2493 5.28835 9.99967C5.28835 8.75006 5.78476 7.55162 6.66837 6.66801ZM15.7567 5.98968C15.8651 5.8874 15.9519 5.76441 16.012 5.62799C16.072 5.49156 16.104 5.34448 16.1062 5.19545C16.1084 5.04642 16.0806 4.89846 16.0246 4.76035C15.9686 4.62224 15.8854 4.49677 15.78 4.39137C15.6746 4.28598 15.5491 4.20281 15.411 4.14677C15.2729 4.09074 15.125 4.06299 14.9759 4.06516C14.8269 4.06733 14.6798 4.09939 14.5434 4.15942C14.407 4.21946 14.284 4.30625 14.1817 4.41467C13.9828 4.62553 13.8739 4.90561 13.8781 5.19545C13.8824 5.48529 13.9994 5.76207 14.2043 5.96704C14.4093 6.17201 14.6861 6.28903 14.9759 6.29326C15.2658 6.29748 15.5459 6.18858 15.7567 5.98968Z" fill="#FFFEF9"/>
</g>
<defs>
<clipPath id="clip0_273_159">
<rect width="20" height="20" fill="white"/>
</clipPath>
</defs>
</svg>
