<svg width="20" height="21" viewBox="0 0 20 21" fill="none" xmlns="http://www.w3.org/2000/svg">
<path d="M10 20.5C8.68678 20.5 7.38642 20.2413 6.17317 19.7388C4.95991 19.2362 3.85752 18.4997 2.92893 17.5711C1.05357 15.6957 0 13.1522 0 10.5C0 7.84784 1.05357 5.3043 2.92893 3.42893C4.8043 1.55357 7.34784 0.5 10 0.5C15.5 0.5 20 4.5 20 9.5C20 11.0913 19.3679 12.6174 18.2426 13.7426C17.1174 14.8679 15.5913 15.5 14 15.5H12.2C11.9 15.5 11.7 15.7 11.7 16C11.7 16.1 11.8 16.2 11.8 16.3C12.2 16.8 12.4 17.4 12.4 18C12.5 19.4 11.4 20.5 10 20.5ZM10 2.5C7.87827 2.5 5.84344 3.34285 4.34315 4.84315C2.84285 6.34344 2 8.37827 2 10.5C2 12.6217 2.84285 14.6566 4.34315 16.1569C5.84344 17.6571 7.87827 18.5 10 18.5C10.3 18.5 10.5 18.3 10.5 18C10.5 17.8 10.4 17.7 10.4 17.6C10 17.1 9.8 16.6 9.8 16C9.8 14.6 10.9 13.5 12.3 13.5H14C15.0609 13.5 16.0783 13.0786 16.8284 12.3284C17.5786 11.5783 18 10.5609 18 9.5C18 5.6 14.4 2.5 10 2.5ZM4.5 8.5C5.3 8.5 6 9.2 6 10C6 10.8 5.3 11.5 4.5 11.5C3.7 11.5 3 10.8 3 10C3 9.2 3.7 8.5 4.5 8.5ZM7.5 4.5C8.3 4.5 9 5.2 9 6C9 6.8 8.3 7.5 7.5 7.5C6.7 7.5 6 6.8 6 6C6 5.2 6.7 4.5 7.5 4.5ZM12.5 4.5C13.3 4.5 14 5.2 14 6C14 6.8 13.3 7.5 12.5 7.5C11.7 7.5 11 6.8 11 6C11 5.2 11.7 4.5 12.5 4.5ZM15.5 8.5C16.3 8.5 17 9.2 17 10C17 10.8 16.3 11.5 15.5 11.5C14.7 11.5 14 10.8 14 10C14 9.2 14.7 8.5 15.5 8.5Z" fill="black"/>
</svg>
