<svg width="286" height="69" viewBox="0 0 286 69" fill="none" xmlns="http://www.w3.org/2000/svg">
<path d="M51.9538 22.5896C51.9538 26.4692 51.0634 30.0308 49.2826 33.2744C47.5018 36.4544 44.767 39.0302 41.0782 41.0018C37.3894 42.9734 32.8102 43.9592 27.3406 43.9592H17.2282V68H0.9148V1.0292H27.3406C32.683 1.0292 37.1986 1.9514 40.8874 3.7958C44.5762 5.64019 47.3428 8.18419 49.1872 11.4278C51.0316 14.6714 51.9538 18.392 51.9538 22.5896ZM26.1004 30.9848C29.2168 30.9848 31.5382 30.2534 33.0646 28.7906C34.591 27.3278 35.3542 25.2608 35.3542 22.5896C35.3542 19.9184 34.591 17.8514 33.0646 16.3886C31.5382 14.9258 29.2168 14.1944 26.1004 14.1944H17.2282V30.9848H26.1004ZM92.1194 68.6678C85.823 68.6678 80.0354 67.205 74.7566 64.2794C69.5414 61.3538 65.3756 57.2834 62.2592 52.0682C59.2064 46.7894 57.68 40.8746 57.68 34.3238C57.68 27.773 59.2064 21.89 62.2592 16.6748C65.3756 11.4596 69.5414 7.3892 74.7566 4.4636C80.0354 1.538 85.823 0.0751977 92.1194 0.0751977C98.4158 0.0751977 104.172 1.538 109.387 4.4636C114.666 7.3892 118.8 11.4596 121.789 16.6748C124.842 21.89 126.368 27.773 126.368 34.3238C126.368 40.8746 124.842 46.7894 121.789 52.0682C118.736 57.2834 114.602 61.3538 109.387 64.2794C104.172 67.205 98.4158 68.6678 92.1194 68.6678ZM92.1194 53.7854C97.4618 53.7854 101.723 52.0046 104.903 48.443C108.147 44.8814 109.768 40.175 109.768 34.3238C109.768 28.409 108.147 23.7026 104.903 20.2046C101.723 16.643 97.4618 14.8622 92.1194 14.8622C86.7134 14.8622 82.3886 16.6112 79.145 20.1092C75.965 23.6072 74.375 28.3454 74.375 34.3238C74.375 40.2386 75.965 44.9768 79.145 48.5384C82.3886 52.0364 86.7134 53.7854 92.1194 53.7854ZM211.287 1.0292V68H194.973V27.8366L179.996 68H166.83L151.757 27.7412V68H135.444V1.0292H154.715L173.508 47.3936L192.111 1.0292H211.287ZM264.708 56.1704H239.713L235.706 68H218.63L242.861 1.0292H261.75L285.982 68H268.715L264.708 56.1704ZM260.51 43.5776L252.21 19.0598L244.006 43.5776H260.51Z" fill="black"/>
</svg>
