<svg width="133" height="126" viewBox="0 0 133 126" fill="none" xmlns="http://www.w3.org/2000/svg">
<path d="M59.2083 81.75H73.7917V94.25H59.2083V81.75ZM73.7917 71.4688V75.5H59.2083V66.125C59.2083 64.4674 59.9766 62.8777 61.344 61.7056C62.7115 60.5335 64.5661 59.875 66.5 59.875C68.5714 59.8749 70.6002 59.3706 72.3503 58.4208C74.1004 57.471 75.4998 56.1148 76.3858 54.5099C77.2718 52.905 77.6079 51.1175 77.355 49.3553C77.1021 47.5931 76.2705 45.9287 74.9571 44.5557C73.6437 43.1827 71.9025 42.1577 69.936 41.5998C67.9695 41.0419 65.8586 40.9742 63.8489 41.4044C61.8393 41.8346 60.0135 42.7452 58.5839 44.0301C57.1544 45.315 56.18 46.9215 55.774 48.6625L41.4677 46.2062C42.3546 42.4068 44.4027 38.8773 47.4025 35.9787C50.4024 33.08 54.2465 30.9161 58.5418 29.7082C62.8371 28.5004 67.4296 28.2918 71.8498 29.1038C76.27 29.9159 80.3593 31.7195 83.6997 34.3302C87.0402 36.9408 89.5119 40.265 90.8623 43.9629C92.2126 47.6608 92.3932 51.5997 91.3855 55.3769C90.3777 59.1542 88.2179 62.6344 85.1267 65.4616C82.0355 68.2889 78.1239 70.3619 73.7917 71.4688ZM88.375 13H15.4583V113H117.542V38H88.375V13ZM0.875 6.7C0.875 3.275 4.13438 0.5 8.15938 0.5H95.6667L132.125 31.75V119.206C132.132 120.027 131.95 120.841 131.59 121.601C131.229 122.362 130.698 123.054 130.025 123.639C129.353 124.223 128.553 124.688 127.671 125.008C126.789 125.327 125.842 125.494 124.884 125.5H8.11563C6.20067 125.489 4.36784 124.832 3.01305 123.672C1.65826 122.512 0.890273 120.941 0.875 119.3V6.7Z" fill="#37474F"/>
</svg>
