<svg width="26" height="26" viewBox="0 0 26 26" fill="none" xmlns="http://www.w3.org/2000/svg">
<path d="M20.5387 18.7713L25.8925 24.1238L24.1238 25.8925L18.7713 20.5387C16.7797 22.1353 14.3025 23.0036 11.75 23C5.54 23 0.5 17.96 0.5 11.75C0.5 5.54 5.54 0.5 11.75 0.5C17.96 0.5 23 5.54 23 11.75C23.0036 14.3025 22.1353 16.7797 20.5387 18.7713ZM18.0312 17.8438C19.6176 16.2124 20.5036 14.0255 20.5 11.75C20.5 6.915 16.5837 3 11.75 3C6.915 3 3 6.915 3 11.75C3 16.5837 6.915 20.5 11.75 20.5C14.0255 20.5036 16.2124 19.6176 17.8438 18.0312L18.0312 17.8438Z" fill="#9F9D93"/>
</svg>
