<svg width="22" height="22" viewBox="0 0 22 22" fill="none" xmlns="http://www.w3.org/2000/svg">
<path d="M19 1H3C1.89543 1 1 1.89543 1 3V7C1 8.10457 1.89543 9 3 9H19C20.1046 9 21 8.10457 21 7V3C21 1.89543 20.1046 1 19 1Z" stroke="black" stroke-width="2" stroke-linecap="round" stroke-linejoin="round"/>
<path d="M19 13H3C1.89543 13 1 13.8954 1 15V19C1 20.1046 1.89543 21 3 21H19C20.1046 21 21 20.1046 21 19V15C21 13.8954 20.1046 13 19 13Z" stroke="black" stroke-width="2" stroke-linecap="round" stroke-linejoin="round"/>
</svg>
