<svg width="21" height="20" viewBox="0 0 21 20" fill="none" xmlns="http://www.w3.org/2000/svg">
<path d="M3 5H4.66667H18" stroke="black" stroke-width="2" stroke-linecap="round" stroke-linejoin="round"/>
<path d="M16.3334 5.00033V16.667C16.3334 17.109 16.1578 17.5329 15.8453 17.8455C15.5327 18.1581 15.1088 18.3337 14.6667 18.3337H6.33341C5.89139 18.3337 5.46746 18.1581 5.1549 17.8455C4.84234 17.5329 4.66675 17.109 4.66675 16.667V5.00033M7.16675 5.00033V3.33366C7.16675 2.89163 7.34234 2.46771 7.6549 2.15515C7.96746 1.84259 8.39139 1.66699 8.83341 1.66699H12.1667C12.6088 1.66699 13.0327 1.84259 13.3453 2.15515C13.6578 2.46771 13.8334 2.89163 13.8334 3.33366V5.00033" stroke="black" stroke-width="2" stroke-linecap="round" stroke-linejoin="round"/>
<path d="M8.83325 9.16699V14.167" stroke="black" stroke-width="2" stroke-linecap="round" stroke-linejoin="round"/>
<path d="M12.1667 9.16699V14.167" stroke="black" stroke-width="2" stroke-linecap="round" stroke-linejoin="round"/>
</svg>
