<svg width="32" height="32" viewBox="0 0 32 32" fill="none" xmlns="http://www.w3.org/2000/svg">
<g clip-path="url(#clip0_273_165)">
<path d="M9.96559 -0.0341797C4.45168 -0.0341797 -0.0350342 4.45129 -0.0350342 9.96582C-0.0350342 15.4804 4.45168 19.9658 9.96559 19.9658C15.4795 19.9658 19.9662 15.4804 19.9662 9.96582C19.9662 4.45129 15.4795 -0.0341797 9.96559 -0.0341797ZM9.96559 19.2997C4.81903 19.2997 0.632298 15.1124 0.632298 9.96582C0.632298 4.81926 4.81903 0.631905 9.96559 0.631905C15.1122 0.631905 19.2989 4.81926 19.2989 9.96582C19.2989 15.1124 15.1122 19.2997 9.96559 19.2997Z" fill="#FFFEF9"/>
<path d="M15.4501 6.87603C15.5193 6.74798 15.5763 6.61371 15.6204 6.47501C15.6408 6.41067 15.6412 6.34165 15.6216 6.27707C15.6019 6.21249 15.5632 6.15539 15.5104 6.1133C15.4576 6.0712 15.3934 6.04611 15.326 6.04131C15.2587 6.03652 15.1915 6.05226 15.1333 6.08646C14.8137 6.27631 14.4678 6.41776 14.1067 6.50619C13.6685 6.11064 13.0993 5.89136 12.5089 5.89062C12.1881 5.89087 11.8707 5.95588 11.5757 6.08176C11.2807 6.20763 11.0142 6.39178 10.792 6.62317C10.5699 6.85455 10.3968 7.1284 10.2831 7.42831C10.1693 7.72821 10.1173 8.048 10.1302 8.36848C8.72755 8.19191 7.44672 7.48215 6.55341 6.38645C6.51918 6.34494 6.47544 6.3123 6.42591 6.29131C6.37637 6.27032 6.32249 6.2616 6.26886 6.26589C6.21523 6.27017 6.16343 6.28734 6.11785 6.31593C6.07228 6.34452 6.03427 6.38369 6.00707 6.4301C5.80252 6.78119 5.69134 7.17883 5.68414 7.58509C5.67693 7.99135 5.77394 8.39268 5.96591 8.7508C5.91883 8.75874 5.8736 8.77523 5.83244 8.79944C5.78202 8.8316 5.7405 8.87594 5.71172 8.92836C5.68295 8.98079 5.66784 9.03962 5.66779 9.09943C5.66779 9.8073 5.98275 10.4572 6.49042 10.8987L6.46859 10.9206C6.43026 10.9639 6.4039 11.0165 6.39209 11.0732C6.38027 11.1298 6.38343 11.1886 6.40124 11.2436C6.5071 11.5739 6.68386 11.877 6.91914 12.1318C7.15442 12.3866 7.44254 12.5868 7.76334 12.7186C7.10448 13.04 6.36716 13.1654 5.6391 13.0797C5.56427 13.0721 5.48901 13.0895 5.42513 13.1292C5.36125 13.169 5.31236 13.2288 5.2861 13.2993C5.26089 13.3703 5.26042 13.4477 5.28476 13.5191C5.3091 13.5904 5.35683 13.6514 5.42019 13.6922C6.40997 14.3274 7.56143 14.6649 8.73752 14.6645C12.5918 14.6645 14.8957 11.5336 14.8957 8.50694L14.8951 8.40466C15.2686 8.11304 15.5931 7.76352 15.8561 7.36936C15.896 7.30977 15.9156 7.23894 15.912 7.16735C15.9085 7.09576 15.8819 7.02722 15.8364 6.97187C15.7908 6.91653 15.7287 6.87732 15.6591 6.86006C15.5895 6.8428 15.5163 6.8484 15.4501 6.87603ZM14.3618 7.97058C14.3166 8.00312 14.2802 8.04649 14.256 8.09671C14.2318 8.14694 14.2206 8.20242 14.2234 8.25809C14.2271 8.34042 14.229 8.42399 14.229 8.50632C14.229 11.2056 12.1752 13.9978 8.73814 13.9978C8.12514 13.9981 7.51645 13.8952 6.9376 13.6934C7.63087 13.5606 8.28213 13.2633 8.83668 12.8265C8.89067 12.7839 8.93018 12.7257 8.94984 12.6599C8.96949 12.594 8.96831 12.5237 8.94647 12.4585C8.92463 12.3933 8.88319 12.3365 8.82782 12.2957C8.77244 12.255 8.70584 12.2323 8.63711 12.2309C8.3682 12.2258 8.10425 12.1575 7.86657 12.0316C7.62889 11.9057 7.42411 11.7258 7.26877 11.5062C7.42656 11.4956 7.58123 11.4694 7.73153 11.4289C7.80428 11.4094 7.86828 11.3658 7.91309 11.3053C7.9579 11.2448 7.98088 11.1709 7.97827 11.0956C7.97567 11.0204 7.94763 10.9482 7.89874 10.8909C7.84985 10.8336 7.783 10.7946 7.70908 10.7802C7.40537 10.7185 7.12416 10.5753 6.89555 10.366C6.66694 10.1567 6.49952 9.88922 6.41121 9.59213C6.57711 9.63392 6.74737 9.65824 6.91764 9.66386C7.0642 9.66323 7.20016 9.57342 7.24569 9.43247C7.29122 9.29152 7.23758 9.13623 7.11347 9.0539C6.82002 8.85838 6.59407 8.57705 6.46648 8.24831C6.33889 7.91958 6.31589 7.55948 6.40061 7.21718C7.48395 8.32876 8.9468 8.9907 10.4969 9.07074C10.6067 9.07137 10.7027 9.03207 10.7695 8.95162C10.8362 8.87117 10.8618 8.76452 10.8381 8.66224C10.7528 8.29489 10.7909 7.90967 10.9466 7.5662C11.1023 7.22272 11.3669 6.94014 11.6994 6.76217C12.0318 6.58421 12.4137 6.5208 12.7859 6.58174C13.158 6.64269 13.4997 6.82459 13.7581 7.09931C13.7968 7.14062 13.8454 7.1714 13.8993 7.18875C13.9532 7.20609 14.0106 7.20944 14.0662 7.19847C14.1691 7.17789 14.2708 7.15419 14.3712 7.12675C14.3259 7.16063 14.2789 7.19207 14.2302 7.22092C14.1655 7.26054 14.1163 7.32101 14.0906 7.39236C14.0649 7.46371 14.0643 7.5417 14.0888 7.61346C14.1134 7.68521 14.1616 7.74647 14.2256 7.78713C14.2897 7.82778 14.3656 7.84541 14.441 7.83711L14.5545 7.82277C14.492 7.87426 14.4277 7.92356 14.3618 7.97058Z" fill="#FFFEF9"/>
</g>
<defs>
<clipPath id="clip0_273_165">
<rect width="32" height="32" fill="white"/>
</clipPath>
</defs>
</svg>
