<svg width="20" height="20" viewBox="0 0 20 20" fill="none" xmlns="http://www.w3.org/2000/svg">
<g clip-path="url(#clip0_273_161)">
<mask id="path-1-inside-1_273_161" fill="white">
<path d="M10 -0.0214844C4.4744 -0.0214844 -0.0218506 4.47352 -0.0218506 9.99977C-0.0218506 15.526 4.4744 20.021 10 20.021C15.5256 20.021 20.0219 15.526 20.0219 9.99977C20.0219 4.47352 15.5256 -0.0214844 10 -0.0214844ZM10 19.3535C4.84252 19.3535 0.646899 15.1573 0.646899 9.99977C0.646899 4.84227 4.84252 0.646016 10 0.646016C15.1575 0.646016 19.3531 4.84227 19.3531 9.99977C19.3531 15.1573 15.1575 19.3535 10 19.3535Z"/>
</mask>
<path d="M10 -0.0214844C4.4744 -0.0214844 -0.0218506 4.47352 -0.0218506 9.99977C-0.0218506 15.526 4.4744 20.021 10 20.021C15.5256 20.021 20.0219 15.526 20.0219 9.99977C20.0219 4.47352 15.5256 -0.0214844 10 -0.0214844ZM10 19.3535C4.84252 19.3535 0.646899 15.1573 0.646899 9.99977C0.646899 4.84227 4.84252 0.646016 10 0.646016C15.1575 0.646016 19.3531 4.84227 19.3531 9.99977C19.3531 15.1573 15.1575 19.3535 10 19.3535Z" fill="#FFFEF9"/>
<path d="M10 -4.02148C2.26575 -4.02148 -4.02185 2.26389 -4.02185 9.99977H3.97815C3.97815 6.68314 6.68305 3.97852 10 3.97852V-4.02148ZM-4.02185 9.99977C-4.02185 17.7356 2.26575 24.021 10 24.021V16.021C6.68305 16.021 3.97815 13.3164 3.97815 9.99977H-4.02185ZM10 24.021C17.7343 24.021 24.0219 17.7356 24.0219 9.99977H16.0219C16.0219 13.3164 13.317 16.021 10 16.021V24.021ZM24.0219 9.99977C24.0219 2.26389 17.7343 -4.02148 10 -4.02148V3.97852C13.317 3.97852 16.0219 6.68314 16.0219 9.99977H24.0219ZM10 15.3535C7.05201 15.3535 4.6469 12.9485 4.6469 9.99977H-3.3531C-3.3531 17.3661 2.63304 23.3535 10 23.3535V15.3535ZM4.6469 9.99977C4.6469 7.05106 7.05201 4.64602 10 4.64602V-3.35398C2.63304 -3.35398 -3.3531 2.63348 -3.3531 9.99977H4.6469ZM10 4.64602C12.948 4.64602 15.3531 7.05106 15.3531 9.99977H23.3531C23.3531 2.63348 17.367 -3.35398 10 -3.35398V4.64602ZM15.3531 9.99977C15.3531 12.9485 12.948 15.3535 10 15.3535V23.3535C17.367 23.3535 23.3531 17.3661 23.3531 9.99977H15.3531Z" fill="white" mask="url(#path-1-inside-1_273_161)"/>
<path d="M12.1875 4.37454H10.52C8.39626 4.35329 8.12501 5.66766 8.12501 7.09016V8.12454H7.18751C7.14513 8.11888 7.10203 8.12306 7.06153 8.13676C7.02104 8.15047 6.98425 8.17332 6.95402 8.20355C6.92379 8.23378 6.90094 8.27057 6.88723 8.31106C6.87353 8.35156 6.86935 8.39466 6.87501 8.43704V10.312C6.86935 10.3544 6.87353 10.3975 6.88723 10.438C6.90094 10.4785 6.92379 10.5153 6.95402 10.5455C6.98425 10.5758 7.02104 10.5986 7.06153 10.6123C7.10203 10.626 7.14513 10.6302 7.18751 10.6245H8.12501V15.312C8.1198 15.3545 8.12436 15.3976 8.13835 15.438C8.15234 15.4784 8.17537 15.5151 8.20571 15.5452C8.23604 15.5754 8.27286 15.5982 8.31336 15.6119C8.35386 15.6257 8.39696 15.63 8.43938 15.6245H10.3488C10.5331 15.6458 10.6825 15.4964 10.6238 15.312L10.625 10.6245H12.1875C12.2299 10.6302 12.273 10.626 12.3135 10.6123C12.354 10.5986 12.3908 10.5758 12.421 10.5455C12.4512 10.5153 12.4741 10.4785 12.4878 10.438C12.5015 10.3975 12.5057 10.3544 12.5 10.312V8.43704C12.5057 8.39466 12.5015 8.35156 12.4878 8.31106C12.4741 8.27057 12.4512 8.23378 12.421 8.20355C12.3908 8.17332 12.354 8.15047 12.3135 8.13676C12.273 8.12306 12.2299 8.11888 12.1875 8.12454H10.6231L10.625 7.18704C10.6856 6.78766 10.6856 6.85266 11.0563 6.87454H12.1744C12.2613 6.85516 12.3538 6.86579 12.4188 6.80266C12.4838 6.73954 12.5213 6.65329 12.4994 6.56204V4.68704C12.5052 4.6447 12.5011 4.6016 12.4874 4.5611C12.4738 4.5206 12.451 4.48379 12.4208 4.45354C12.3907 4.4233 12.3539 4.40043 12.3134 4.38673C12.2729 4.37302 12.2299 4.36885 12.1875 4.37454ZM11.8531 6.21454L11.0694 6.18454C10.0988 6.18454 10.0175 6.71141 10.0175 7.25079L10.015 8.43579C10.0149 8.47967 10.0235 8.52313 10.0402 8.5637C10.057 8.60426 10.0815 8.64113 10.1125 8.67219C10.1435 8.70325 10.1804 8.72789 10.2209 8.7447C10.2614 8.76151 10.3049 8.77016 10.3488 8.77016H11.875V9.97766H10.35C10.2614 9.97766 10.1765 10.0128 10.1138 10.0754C10.0511 10.1379 10.0158 10.2228 10.0156 10.3114L10.015 14.9995H8.75001V10.312C8.75001 10.1277 8.62438 9.97829 8.43938 9.97829H7.50001V8.77079H8.43938C8.48324 8.77085 8.52667 8.76228 8.56721 8.74555C8.60775 8.72882 8.64459 8.70426 8.67563 8.67329C8.73813 8.61016 8.74938 8.52516 8.74938 8.43641V7.08954C8.74938 5.68829 9.03251 5.02079 10.5194 5.02079H11.8525V6.21454H11.8531Z" fill="#FFFEF9"/>
</g>
<defs>
<clipPath id="clip0_273_161">
<rect width="20" height="20" fill="white"/>
</clipPath>
</defs>
</svg>
