<svg width="89" height="25" viewBox="0 0 89 25" fill="none" xmlns="http://www.w3.org/2000/svg">
<g clip-path="url(#clip0_98_709)">
<path fill-rule="evenodd" clip-rule="evenodd" d="M23.8254 11.0497C23.5284 11.3898 23.1718 11.6415 23.2901 12.2639C23.4033 12.8583 23.9699 13.1844 24.672 12.9927C25.5883 12.7425 25.8431 10.8821 23.8254 11.0497Z" fill="#630000" stroke="#D8B6A4" stroke-width="0.288082" stroke-miterlimit="2.61313"/>
<path fill-rule="evenodd" clip-rule="evenodd" d="M29.3884 12.5406C29.6322 10.3839 27.6289 10.8172 27.4252 11.7017C27.2717 12.3674 27.6122 12.8206 28.0817 12.991C28.6937 13.2127 29.0181 12.8066 29.3884 12.5409V12.5406Z" fill="#630000" stroke="#D8B6A4" stroke-width="0.288082" stroke-miterlimit="2.61313"/>
<path fill-rule="evenodd" clip-rule="evenodd" d="M31.6331 12.7145C33.0006 13.5612 34.2966 12.5314 33.0066 11.0579C31.635 10.917 31.3548 11.5322 31.6331 12.7145Z" fill="#630000" stroke="#D8B6A4" stroke-width="0.288082" stroke-miterlimit="2.61313"/>
<path fill-rule="evenodd" clip-rule="evenodd" d="M10.6939 0.284439C12.8104 0.284439 14.6484 0.631497 16.2081 1.32561C17.7675 2.01973 18.9708 3.01144 19.8172 4.30022C20.6638 5.58926 21.0872 7.10414 21.0872 8.84488C21.0872 10.5856 20.6638 12.0951 19.8172 13.3732C18.9706 14.6511 17.7675 15.6374 16.2081 16.3312C14.6484 17.0254 12.8106 17.3724 10.6939 17.3724H6.6169V23.4211H0V1.085C0.365307 0.740795 0.790058 0.471954 1.2787 0.28418H10.6939V0.284439ZM10.2927 12.2165C11.6518 12.2165 12.6765 11.9246 13.3673 11.3408C14.0579 10.7568 14.4033 9.9249 14.4033 8.84539C14.4033 7.76563 14.0579 6.92828 13.3673 6.33362C12.6765 5.7387 11.6518 5.44111 10.2927 5.44111H6.6169V12.2168H10.2927V12.2165Z" fill="#630000"/>
<path fill-rule="evenodd" clip-rule="evenodd" d="M80.2777 18.9256H70.3859L68.5478 23.4208H61.7971L71.8175 0.970268C72.1535 0.680448 72.5364 0.450457 72.9695 0.28418H77.917C78.2705 0.420154 78.5905 0.598346 78.8788 0.816941L89 23.4211H82.1158L80.2777 18.9259V18.9256ZM78.3394 14.1L75.3318 6.69622L72.3242 14.1H78.3394Z" fill="#630000"/>
<path fill-rule="evenodd" clip-rule="evenodd" d="M36.78 2.51544C37.4921 3.03008 38.1452 3.61982 38.7276 4.27249V12.0414C35.495 11.5615 36.8303 6.85653 31.5228 5.45975C22.9196 3.323 18.8295 14.576 25.4794 18.3343C29.9186 21.0551 33.293 18.8031 34.4937 18.7091C34.9564 19.4812 36.3482 21.0305 36.5991 21.7902C36.1199 22.6184 34.0542 23.4384 32.9866 23.7391C31.457 24.1698 29.6847 24.3662 27.9666 24.1406C24.7438 23.7176 25.3097 22.886 23.7165 23.5529C22.7863 23.9422 20.7898 24.8207 19.873 24.9992C20.6644 21.4589 21.7443 21.5182 20.4599 20.1978C19.3723 19.0797 18.5676 17.7065 17.9687 15.9303C16.6298 11.9586 17.6372 8.02539 19.6242 5.22406C21.2235 2.96921 24.1779 0.701933 28.2552 0.257491C30.4075 0.0228375 32.439 0.414703 34.2174 1.13213C34.9326 1.42066 35.936 1.96274 36.752 2.54937L36.7798 2.51493L36.78 2.51544Z" fill="#630000"/>
<path d="M60.4594 23.1366L60.3926 10.8743L54.3773 20.8562H51.4365L45.4543 11.2048V23.1369H39.3387V20.708L39.4167 20.6764L39.4243 20.6733L39.5118 20.6368C39.5707 20.6122 39.6306 20.5865 39.6919 20.5599L39.6945 20.5588L39.7825 20.5202L39.7982 20.5132L39.8813 20.4762L39.9776 20.4324L39.9994 20.4226L40.0756 20.3874C40.1413 20.3568 40.2075 20.3252 40.2751 20.2928L40.3764 20.2436L40.3772 20.2434L40.4786 20.1931L40.5469 20.1592L40.614 20.1253L40.637 20.1139L40.6857 20.089L40.7687 20.0463L40.7905 20.0349L40.8955 19.9797L40.9012 19.9769L41.001 19.9238L41.0343 19.9059L41.1065 19.8665L41.1264 19.8556L41.2034 19.8134L41.2123 19.8085L41.3014 19.759L41.3184 19.7495L41.4242 19.6891L41.5035 19.6433L41.5428 19.6205L41.6025 19.5853L41.6672 19.5469L41.7227 19.5138L41.7397 19.5034L41.8322 19.4472L41.844 19.44C41.9223 19.3918 41.9995 19.3431 42.0765 19.2936L42.1155 19.2685L42.1928 19.218L42.236 19.1892L42.2991 19.147L42.3525 19.111L42.451 19.0432L42.4538 19.0411L42.5164 18.9971L42.5633 18.9639L42.6186 18.924L42.6974 18.8663L42.716 18.8525L42.826 18.7694L42.8278 18.7681L42.8296 18.7666L42.9318 18.6868L42.965 18.6601L43.031 18.6068L43.0732 18.5718L43.1266 18.527L43.1706 18.4894L43.2601 18.4115L43.2622 18.4094L43.3513 18.3283L43.379 18.3022L43.4458 18.2382L43.4662 18.218L43.5335 18.1507L43.5529 18.131C43.5807 18.1025 43.6074 18.074 43.6338 18.0455L43.6404 18.038L43.7072 17.9631L43.7315 17.9346L43.7784 17.8782L43.803 17.8481L43.8517 17.7855L43.8674 17.7647C43.8884 17.7365 43.9085 17.7085 43.9279 17.6803L43.9373 17.6661C43.9533 17.6422 43.969 17.6187 43.9839 17.5948L43.9989 17.5708L44.0334 17.5125L44.0502 17.4827C44.0628 17.4594 44.0751 17.4366 44.0866 17.4135L44.0931 17.4009C44.1068 17.3731 44.1193 17.3457 44.1309 17.3182L44.1398 17.2954C44.1484 17.2745 44.1565 17.2532 44.1639 17.2322L44.1722 17.2071C44.1785 17.1885 44.184 17.1698 44.1893 17.1512L44.1979 17.1211C44.212 17.067 44.222 17.0131 44.228 16.9598L44.2301 16.9357C44.2319 16.9168 44.233 16.8976 44.2338 16.879L44.2343 16.8489C44.2346 16.8308 44.2335 16.8129 44.2327 16.7951L44.2314 16.7704C44.2293 16.7438 44.2262 16.7171 44.2217 16.6907C44.2029 16.5806 43.6964 16.3555 43.7498 16.0566C43.8266 15.6265 43.8954 15.2949 43.1525 15.0699C43.3453 14.2988 43.0755 13.8849 42.2863 13.6915C42.2719 12.671 41.0785 11.9248 40.134 12.8116L40.1167 12.8233L40.1017 12.8337L40.0997 12.8352L40.0829 12.8469L40.0703 12.8557L40.0664 12.8585L40.0502 12.8704L40.0399 12.878L40.0342 12.8821L40.0185 12.894L40.0104 12.9002L40.003 12.9059L39.9878 12.9178L39.9818 12.9225L39.9729 12.9298L39.958 12.9417L39.9541 12.945L39.9436 12.9536L39.9292 12.9655L39.9268 12.9673L39.915 12.9771L39.9012 12.9891L39.9006 12.9896L39.8873 13.001L39.8747 13.0119L39.8737 13.0129L39.86 13.0248L39.8496 13.0344L39.8469 13.037L39.8339 13.0489L39.825 13.0569L39.8208 13.0608L39.8082 13.0727L39.8011 13.0795L39.7956 13.0846L39.7833 13.0965L39.7778 13.1017L39.771 13.1085L39.7587 13.1204L39.7548 13.1243L39.7467 13.1323L39.7346 13.1442L39.7322 13.1465L39.7228 13.1559L39.711 13.1678L39.71 13.1685L39.6993 13.1794L39.6883 13.1906L39.6877 13.1911L39.6762 13.2027L39.6668 13.2126L39.6649 13.2147L39.6537 13.2263L39.6458 13.2346L39.6427 13.238L39.6317 13.2496L39.6251 13.2563L39.6207 13.261L39.6097 13.2724L39.6045 13.2778L39.599 13.2838L39.588 13.2952L39.5843 13.2991L39.5772 13.3063L39.5665 13.3175L39.5641 13.3203L39.556 13.3289L39.5453 13.3403L39.544 13.3413L39.5345 13.3511L39.5238 13.362L39.5131 13.3732L39.5036 13.3827L39.5021 13.384L39.4916 13.3949L39.4835 13.4029L39.4809 13.4058L39.4701 13.4164L39.4633 13.4231L39.4594 13.427L39.4269 13.4586L39.4227 13.4628L39.4162 13.469L39.4052 13.4793L39.4023 13.4822L39.3944 13.4897L39.3834 13.5001L39.3816 13.5016L39.3722 13.5102L39.3609 13.5203L39.3607 13.5205L39.3497 13.5301L39.3392 13.5392L39.3381 13.54V0.851848C39.699 0.488731 40.1209 0.202796 40.6082 0H44.1044C44.4878 0.143485 44.8319 0.336181 45.1396 0.575496L53.0064 13.3535L60.797 0.382801C61.0036 0.235171 61.2259 0.107485 61.4645 0.000258999H65.1699C65.6732 0.206422 66.1071 0.500645 66.4766 0.876712L66.5408 23.1372H60.4586L60.4594 23.1366Z" fill="#630000"/>
<path fill-rule="evenodd" clip-rule="evenodd" d="M37.1448 21.3061C37.9624 21.2532 43.3469 18.8153 43.0345 16.9756C43.0159 16.8655 42.5095 16.6405 42.5626 16.3418C42.6396 15.9114 42.7082 15.5799 41.9656 15.3548C42.1583 14.584 41.8883 14.1701 41.0991 13.9764C41.0847 12.9559 39.8913 12.21 38.9465 13.0968C38.2481 13.5641 38.2264 14.1074 37.186 14.173C36.5831 13.9479 36.8513 13.4245 36.7657 12.9435C36.5973 11.9997 36.4307 11.2276 34.7857 11.2217C34.5568 12.1168 35.5197 12.7801 35.3162 14.0857C35.1133 15.5716 35.8036 16.0994 35.4506 17.1903C34.8517 19.181 34.3578 17.161 37.1443 21.3061H37.1448Z" fill="#630000" stroke="#D8B6A4" stroke-width="0.288082" stroke-miterlimit="2.61313"/>
</g>
<defs>
<clipPath id="clip0_98_709">
<rect width="89" height="25" fill="white"/>
</clipPath>
</defs>
</svg>
